<svg xmlns="http://www.w3.org/2000/svg" fill="none" viewBox="0 0 278 182" height="182" width="278">
<path fill="#F7E4EF" d="M128.757 104.006C128.825 103.815 128.906 103.644 129.059 103.496C129.58 102.995 130.083 102.477 130.599 101.975C134.572 98.1262 138.473 94.2089 142.3 90.2227C149.348 82.8806 156.242 75.4058 162.503 67.3976C165.387 63.7074 168.146 59.9304 170.238 55.7324C170.981 54.242 171.596 52.7057 171.797 51.0444C172.036 49.0487 170.926 47.7191 168.972 47.663C168.428 47.6476 167.881 47.7038 167.344 47.8314C164.824 48.4337 162.709 49.7888 160.705 51.32C156.362 54.6401 152.717 58.6417 149.278 62.8218C141.946 71.7334 135.664 81.3264 130.148 91.4068C127.241 96.7226 124.557 102.143 122.65 107.895C121.866 110.258 121.204 112.645 121.399 115.179C121.563 117.292 122.697 118.392 124.846 118.481C126.759 118.56 128.478 117.94 130.133 117.09C132.905 115.666 135.265 113.699 137.566 111.654C137.827 111.425 138.048 111.136 138.449 110.96C138.449 111.141 138.468 111.251 138.449 111.353C138.217 112.555 138.283 113.75 138.494 114.949C138.942 117.511 140.674 118.925 143.303 118.828C146.904 118.695 150.002 117.259 152.865 115.245C156.37 112.777 159.16 109.633 161.664 106.226C162.185 105.517 162.175 105.514 162.68 106.201C163.777 107.686 165.114 108.817 167.096 108.901C168.602 108.962 169.952 108.383 171.283 107.796C173.131 106.979 174.564 105.695 176.017 104.284C179.767 100.643 183.31 96.8349 186.624 92.8232C187.461 91.8126 188.302 91.4094 189.566 91.565C190.439 91.6722 190.647 91.9045 190.358 92.7415C190.061 93.599 189.542 94.334 189.021 95.0689C187.442 97.2892 185.647 99.3435 183.998 101.51C182.198 103.873 180.405 106.244 179.214 108.98C178.521 110.57 178.138 112.203 178.524 113.938C178.813 115.248 179.54 116.159 180.929 116.475C182.403 116.809 183.836 116.547 185.249 116.159C188.036 115.393 190.457 113.933 192.752 112.252C192.937 112.116 193.091 111.894 193.414 111.943C193.258 112.877 193.054 113.796 193.135 114.74C193.32 116.937 194.654 118.887 197.499 118.652C200.386 118.412 202.979 117.373 205.456 115.993C207.723 114.73 209.781 113.175 211.801 111.568C211.934 111.463 212.053 111.249 212.254 111.338C212.46 111.432 212.356 111.657 212.345 111.82C212.304 112.517 212.39 113.206 212.507 113.887C212.895 116.136 214.484 117.401 216.821 117.335C218.202 117.294 219.528 116.996 220.81 116.496C223.484 115.454 225.667 113.693 227.827 111.902C228.64 111.228 229.447 110.549 230.26 109.873C230.305 109.909 230.346 109.945 230.391 109.98C230.336 110.192 230.276 110.404 230.226 110.618C230.117 111.098 229.982 111.573 229.916 112.058C229.486 115.194 231.537 117.09 234.713 116.539C236.771 116.182 238.621 115.334 240.362 114.25C244.348 111.762 247.821 108.674 251.133 105.397C251.307 105.223 251.458 105.024 251.604 104.823C251.867 104.455 252.222 104.039 251.888 103.613C251.557 103.189 251.057 103.409 250.632 103.575C249.77 103.907 249.033 104.437 248.34 105.017C246.294 106.729 244.283 108.482 242.225 110.179C241.109 111.098 239.927 111.943 238.507 112.392C236.941 112.887 235.971 112.323 235.682 110.743C235.622 110.409 235.641 110.077 235.682 109.743C235.815 108.648 236.12 107.597 236.563 106.589C237.923 103.48 239.465 100.5 241.92 98.0242C243.983 95.9443 245.909 93.7266 247.649 91.3685C248.17 90.6642 248.694 89.9522 248.994 89.1228C249.337 88.1709 248.832 87.5048 247.808 87.5558C247.138 87.589 246.505 87.7753 245.906 88.0611C245.661 88.1785 245.489 88.2168 245.255 87.9769C243.673 86.3539 241.73 85.7771 239.473 86.1012C237.905 86.3258 236.409 86.78 234.958 87.3874C230.847 89.11 227.241 91.5982 223.9 94.4692C220.018 97.8047 216.574 101.5 214.138 106.012C214.008 106.252 213.843 106.459 213.627 106.632C211.704 108.173 209.797 109.738 207.76 111.136C206.413 112.063 205.027 112.923 203.427 113.382C201.269 114 199.86 112.915 199.943 110.72C199.982 109.659 200.264 108.648 200.636 107.661C201.785 104.621 203.521 101.896 205.357 99.2262C207.371 96.2965 209.604 93.5275 211.78 90.7127C212.001 90.4268 212.223 90.1436 212.423 89.845C212.632 89.5311 212.937 89.1942 212.629 88.814C212.319 88.4286 211.91 88.6736 211.553 88.7783C211.092 88.9135 210.691 89.1789 210.292 89.4418C209.44 90.0083 208.664 90.6667 207.937 91.3762C203.419 95.7733 199.584 100.706 196.134 105.933C195.85 106.364 195.577 106.806 195.18 107.15C193.987 108.186 192.791 109.225 191.489 110.133C190.066 111.124 188.581 111.999 186.799 112.185C185.413 112.331 184.602 111.578 184.584 110.197C184.571 109.194 184.845 108.253 185.243 107.344C186.233 105.086 187.726 103.138 189.264 101.222C191.278 98.7107 193.482 96.3475 195.36 93.7317C196.228 92.5246 197.041 91.2843 197.426 89.8297C197.893 88.0637 197.142 86.8872 195.342 86.5095C194.297 86.2901 193.255 86.3717 192.208 86.4228C192.033 86.4304 191.819 86.5325 191.697 86.359C191.567 86.1778 191.754 86.0195 191.835 85.8766C192.301 85.0498 192.664 84.1872 192.854 83.2608C193.234 81.4106 192.304 80.446 190.41 80.7241C186.843 81.2499 183.081 85.4479 183.018 88.9722C183.008 89.6077 183.047 90.2661 183.516 90.7382C183.946 91.172 183.818 91.4502 183.503 91.8611C180.074 96.3296 176.218 100.451 172.555 104.726C171.903 105.486 171.09 105.652 170.15 105.29C169.472 105.029 168.931 104.606 168.472 104.06C167.419 102.809 166.864 101.329 166.382 99.8055C166.221 99.2925 166.291 98.8612 166.51 98.3942C167.034 97.279 167.565 96.1663 168.013 95.023C168.641 93.4178 169.248 91.7973 169.079 90.0236C169.011 89.3142 168.764 88.7196 168.068 88.3929C167.868 88.2985 167.774 88.1428 167.685 87.9514C166.7 85.8664 165.236 85.1468 162.878 85.4938C160.129 85.8996 157.693 87.0301 155.437 88.5435C149.278 92.6752 144.538 98.065 141 104.471C140.403 105.553 139.708 106.489 138.785 107.313C136.8 109.09 134.942 111.009 132.824 112.642C131.839 113.403 130.834 114.143 129.588 114.469C128.163 114.842 127.256 114.291 127.022 112.864C126.892 112.068 126.915 111.261 127.024 110.46C127.329 108.235 128.025 106.111 128.775 104.004L128.757 104.006ZM132.613 95.9392C137.058 87.4997 141.98 79.341 147.553 71.565C151.013 66.7366 154.733 62.1073 158.725 57.6872C160.207 56.0437 161.818 54.5278 163.67 53.2799C163.949 53.0936 164.262 52.6955 164.613 52.9456C164.962 53.1931 165.08 53.6423 165.022 54.0965C164.9 55.0816 164.592 56.0106 164.183 56.914C162.581 60.4459 160.359 63.6079 158.063 66.7213C152.12 74.7882 145.534 82.3447 138.838 89.8093C136.852 92.0244 134.823 94.1987 132.809 96.3909C132.616 96.6001 132.457 96.8477 132.139 96.988C132.196 96.5721 132.441 96.2658 132.613 95.9392ZM220.281 104.121C223.226 98.7744 227.241 94.3646 232.485 91.0878C234.189 90.0236 236.024 89.2172 238.129 89.3371C239.481 89.4137 240.565 89.9981 241.404 91.0393C241.623 91.3124 241.641 91.5115 241.383 91.7871C239.197 94.1145 237.381 96.7048 235.698 99.3946C235.172 100.237 234.398 100.888 233.71 101.6C230.685 104.728 227.642 107.844 224.231 110.588C223.562 111.126 222.874 111.644 222.103 112.04C220.941 112.634 219.768 112.257 219.182 111.101C218.861 110.468 218.773 109.781 218.747 109.133C218.841 107.308 219.432 105.662 220.281 104.121ZM146.967 102.595C149.483 98.1288 152.618 94.1119 156.703 90.8862C157.985 89.8756 159.379 89.0054 161.161 89.1355C161.51 89.1611 161.841 89.2402 162.151 89.3678C163.014 89.7225 163.068 90.1027 162.393 90.705C160.312 92.5629 159.585 94.9133 159.83 97.598C159.903 98.3968 160.056 99.1879 160.262 99.9662C160.338 100.247 160.366 100.525 160.202 100.808C158.022 104.565 155.606 108.153 152.349 111.124C151.346 112.04 150.26 112.854 148.952 113.326C147.12 113.984 145.982 113.461 145.32 111.654C145.072 110.978 144.942 110.276 144.96 109.554C145.039 107.071 145.763 104.733 146.967 102.595Z"></path>
<path fill="#F7E4EF" d="M213.27 83.7332C213.83 83.6898 214.453 83.4805 215.081 83.2764C217.829 82.3857 219.836 80.3875 222.087 78.7593C222.194 78.6828 222.274 78.5654 222.363 78.4633C222.983 77.7207 222.944 77.0623 222.214 76.4166C221.318 75.6229 220.258 75.4009 219.096 75.6485C216.605 76.1844 214.466 77.3532 212.684 79.1345C212.025 79.7929 211.503 80.5483 211.292 81.4747C210.951 82.9753 211.592 83.7485 213.27 83.7332Z"></path>
<path fill="#F7E4EF" d="M252.368 29.401C233.999 14.214 210.456 6.03233 186.973 2.34468C158.485 -2.12897 128.77 -0.061853 100.98 7.35937C75.8403 14.0711 51.448 25.4429 31.8185 42.4239C16.0243 56.0873 2.88498 74.3724 0.401981 95.3269C-1.91427 114.875 5.93596 133.566 19.9064 147.395C21.9856 149.452 24.1663 151.392 26.4305 153.234C26.4826 153.28 26.5399 153.326 26.5998 153.375C35.5079 160.541 51.7581 163.565 64.603 156.297C82.6692 146.071 95.1675 124.435 100.821 116.08C106.871 107.14 113.325 96.4753 118.916 87.2574C119.127 86.9078 119.383 86.6041 119.677 86.3208C123.559 82.6026 127.355 78.8027 130.873 74.7475C132.525 72.8412 134.163 70.917 135.336 68.6712C135.617 68.1327 135.86 67.5789 135.833 66.9512C135.8 66.1549 135.344 65.7185 134.528 65.7364C133.369 65.7645 132.371 66.2519 131.42 66.8465C129.106 68.2935 127.233 70.2177 125.44 72.2185C121.915 76.1562 118.895 80.4666 115.93 84.8126C115.753 85.0704 115.566 85.3307 115.339 85.545C108.239 92.2032 100.655 98.2668 92.4031 103.516C85.4987 107.908 78.2764 111.683 70.4626 114.304C64.1392 116.424 57.6646 117.728 50.9452 117.522C47.5008 117.414 44.1449 116.82 41.0054 115.342C37.6 113.74 35.1327 111.29 34.0201 107.691C33.1082 104.741 33.3115 101.776 34.0749 98.8257C35.2317 94.3571 37.3864 90.3249 39.9163 86.4893C45.815 77.5369 52.9983 69.6537 61.1195 62.5898C69.668 55.1533 78.9277 48.661 88.7295 42.8985C97.1347 37.9553 105.847 33.6475 115.216 30.7229C120.209 29.1662 125.294 28.0587 130.57 28.028C134.166 28.0076 137.561 28.7324 140.502 30.8608C142.743 32.4813 143.699 34.6862 143.275 37.4245C142.952 39.5069 142.027 41.3367 140.82 43.0364C137.941 47.0889 134.169 50.2534 130.125 53.1168C121.084 59.5172 111.194 64.3456 100.743 68.0945C95.3838 70.0187 89.9306 71.6264 84.2064 72.1394C80.1028 72.5069 76.1607 72.2108 72.9091 69.3066C72.5991 69.0285 72.2369 69.0259 71.88 69.1204C70.9186 69.3807 70.0536 69.8247 69.3709 70.5495C68.6831 71.2794 68.7013 71.7974 69.4908 72.415C70.9993 73.5966 72.6538 74.5229 74.5323 75.0257C77.4531 75.8092 80.4155 75.6433 83.37 75.3396C88.0573 74.8573 92.6142 73.7573 97.0877 72.3308C108.278 68.758 118.692 63.6208 128.468 57.2357C133.872 53.7063 138.973 49.8119 143.269 44.9937C145.455 42.5438 147.42 39.9484 148.467 36.8044C149.176 34.6734 149.379 32.5221 148.564 30.3682C147.654 27.9693 145.802 26.4713 143.504 25.4658C139.03 23.5059 134.327 23.3196 129.549 23.8606C125.253 24.348 121.087 25.4122 116.973 26.678C109.909 28.8523 103.153 31.7488 96.5771 35.0639C83.2398 41.7859 70.8508 49.891 59.4937 59.4968C51.9457 65.8819 45.0204 72.8437 38.9783 80.6299C35.0884 85.642 31.6283 90.9068 29.1401 96.733C27.4544 100.678 26.2298 104.723 26.7692 109.09C27.3215 113.569 29.5153 117.027 33.4417 119.39C36.8679 121.452 40.6823 122.279 44.6348 122.541C51.0285 122.965 57.2842 122.069 63.4409 120.433C72.0129 118.155 79.9934 114.518 87.6508 110.172C94.8887 106.066 101.692 101.347 108.182 96.1843C108.403 96.0082 108.588 95.7684 108.906 95.7071C108.966 95.9776 108.76 96.1333 108.651 96.3119C107.981 97.4016 107.299 98.4837 106.616 99.5657C100.983 108.498 96.6735 116.986 89.9592 125.195C84.7249 131.596 77.3749 142.133 70.7362 147.171C66.174 150.634 61.4816 153.757 56.005 155.669C45.8776 159.206 35.1796 155.858 27.4805 149.098C15.498 138.525 6.61859 124.708 4.63324 108.722C2.1789 88.9647 10.6857 69.8043 23.5566 54.967C39.2571 36.8707 60.7599 24.1235 83.2059 15.6585C109.341 5.8052 137.863 1.52294 165.809 2.95717C190.287 4.21275 215.216 9.96751 236.297 22.5693C253.053 32.5859 267.461 47.5815 272.146 66.6934C273.216 71.0624 273.764 75.5463 273.777 80.0404C273.709 100.362 263.141 118.752 248.874 132.928C231.534 150.159 208.942 162.059 185.598 169.491C158.923 177.981 130.271 181.115 102.359 178.252C95.2249 177.519 88.5054 175.391 82.1038 172.152C81.0538 171.622 70.1578 164.172 67.7946 165.675C60.1216 170.555 83.331 179.232 103.471 181.156C124.547 183.169 145.95 181.49 166.625 177.088C192.635 171.55 218.168 161.171 239.286 145.111C256.385 132.106 271.385 114.651 276.356 93.5685C277.435 88.9902 277.984 84.3124 278 79.6142C277.935 59.7188 267.662 42.0487 252.368 29.401Z"></path>
<path fill="#F7E4EF" d="M153.603 152.583C153.574 152.701 153.556 152.818 153.632 152.907C153.705 152.997 153.83 153.004 153.926 152.999C154.343 152.984 154.775 152.981 155.205 152.999C155.481 153.004 155.617 152.907 155.682 152.634C155.818 152.05 155.961 151.463 156.107 150.879L156.607 148.85C156.993 147.28 157.378 145.711 157.769 144.139C157.803 144.009 157.821 143.873 157.738 143.774C157.654 143.677 157.516 143.669 157.404 143.677C157.06 143.695 156.706 143.695 156.349 143.677C156.091 143.662 155.914 143.751 155.726 143.981C154.89 145.004 154.048 146.022 153.207 147.04L151.477 149.133C151.477 149.133 151.477 149.125 151.474 149.123C151.469 149.1 151.464 149.079 151.456 149.059L151.373 148.817C150.828 147.209 150.286 145.599 149.749 143.988C149.677 143.769 149.528 143.674 149.283 143.682C148.858 143.697 148.449 143.692 148.137 143.682C147.884 143.674 147.754 143.779 147.694 144.024C146.985 146.928 146.274 149.822 145.578 152.627C145.557 152.716 145.539 152.826 145.609 152.91C145.677 152.992 145.784 153.002 145.891 152.999C146.243 152.992 146.709 152.984 147.173 152.999C147.451 153.004 147.579 152.907 147.644 152.64C147.973 151.264 148.314 149.888 148.653 148.515L148.762 148.069L150.513 153.165L154.695 148.14L154.471 149.057C154.181 150.233 153.9 151.407 153.603 152.583Z"></path>
<path fill="#F7E4EF" d="M158.845 132.634C158.686 131.368 157.865 130.656 156.537 130.626C155.354 130.598 154.139 130.59 152.972 130.598C152.337 130.598 151.727 130.598 151.107 130.593C150.791 130.593 150.732 130.81 150.7 130.94C150.427 132.07 150.148 133.201 149.869 134.331L149.395 136.263C149.129 137.348 148.863 138.432 148.59 139.517C148.564 139.619 148.548 139.736 148.619 139.823C148.689 139.91 148.809 139.915 148.905 139.913C149.343 139.897 149.783 139.897 150.213 139.913C150.505 139.918 150.596 139.782 150.646 139.573C150.75 139.126 150.862 138.68 150.971 138.233C151.091 137.743 151.214 137.251 151.328 136.761C151.367 136.59 151.388 136.567 151.555 136.572C152.274 136.585 153.019 136.587 153.837 136.572C153.983 136.572 154.014 136.603 154.051 136.72C154.197 137.205 154.351 137.687 154.502 138.167C154.653 138.649 154.804 139.129 154.95 139.614C155.015 139.826 155.153 139.918 155.39 139.913C155.956 139.9 156.453 139.9 156.92 139.913C156.935 139.913 156.948 139.913 156.964 139.913C157.081 139.913 157.193 139.895 157.256 139.81C157.329 139.716 157.297 139.594 157.263 139.486C157.084 138.938 156.909 138.389 156.735 137.838C156.578 137.348 156.424 136.86 156.266 136.373C156.247 136.319 156.25 136.301 156.25 136.301C156.25 136.301 156.268 136.281 156.357 136.25C157.915 135.74 159.033 134.119 158.845 132.634ZM156.737 133.453C156.641 134.063 156.101 134.533 155.479 134.546C155.067 134.556 154.658 134.553 154.249 134.551C154.067 134.551 153.882 134.551 153.699 134.551H153.212C152.79 134.551 152.365 134.551 151.943 134.553C151.912 134.553 151.888 134.553 151.878 134.551C151.878 134.538 151.881 134.518 151.891 134.487C152.04 133.92 152.183 133.333 152.321 132.744C152.347 132.629 152.368 132.621 152.485 132.619C153.019 132.621 153.556 132.619 154.093 132.619C154.707 132.619 155.322 132.619 155.935 132.624C156.219 132.624 156.453 132.718 156.596 132.884C156.727 133.032 156.774 133.229 156.737 133.453Z"></path>
<path fill="#F7E4EF" d="M197.127 143.679C196.767 143.656 196.644 143.837 196.579 144.113C196.183 145.762 195.777 147.41 195.368 149.059L195.24 149.579C195.238 149.595 195.235 149.607 195.232 149.623L195.019 149.26C193.969 147.477 192.921 145.693 191.874 143.909C191.783 143.753 191.647 143.684 191.475 143.684C191.03 143.692 190.665 143.692 190.329 143.684C190.066 143.674 189.946 143.781 189.883 144.029C189.185 146.895 188.479 149.763 187.768 152.629C187.747 152.716 187.729 152.828 187.799 152.912C187.875 153.007 188.013 153.004 188.083 153.002C188.518 152.991 188.943 152.986 189.365 153.002C189.68 153.017 189.777 152.864 189.831 152.637C190.238 150.95 190.655 149.263 191.071 147.576L191.152 147.252C191.157 147.229 191.163 147.203 191.168 147.18C191.168 147.17 191.17 147.16 191.173 147.15C191.181 147.163 191.189 147.175 191.194 147.188L191.514 147.739C192.478 149.406 193.442 151.07 194.404 152.739C194.513 152.93 194.659 153.007 194.886 153.002C195.339 152.984 195.74 152.984 196.108 153.002C196.121 153.002 196.134 153.002 196.147 153.002C196.426 153.002 196.522 152.854 196.574 152.629C196.91 151.241 197.252 149.855 197.593 148.467L198.098 146.412C198.283 145.654 198.468 144.896 198.664 144.136C198.692 144.024 198.716 143.881 198.63 143.779C198.546 143.679 198.406 143.674 198.291 143.677C197.846 143.697 197.468 143.697 197.127 143.679Z"></path>
<path fill="#F7E4EF" d="M207.22 143.521H207.21C204.529 143.526 201.827 145.657 201.191 148.273C200.855 149.651 201.084 150.92 201.832 151.843C202.528 152.706 203.617 153.178 204.899 153.178H204.914C207.713 153.17 210.331 151.08 211.001 148.319C211.324 146.992 211.102 145.77 210.378 144.874C209.672 144.001 208.551 143.521 207.22 143.521ZM208.921 148.314V148.327C208.656 149.674 207.077 151.17 205.355 151.17C205.344 151.17 205.336 151.17 205.326 151.17C204.622 151.162 204.021 150.894 203.63 150.409C203.197 149.871 203.064 149.131 203.255 148.327C203.627 146.747 205.469 145.53 206.808 145.53H206.821C207.53 145.535 208.174 145.849 208.591 146.395C209.007 146.941 209.127 147.622 208.921 148.314Z"></path>
<path fill="#F7E4EF" d="M106.173 140.089C108.974 140.086 111.597 138.011 112.27 135.263C112.595 133.926 112.374 132.69 111.644 131.787C110.938 130.912 109.82 130.432 108.497 130.432H108.489C105.764 130.434 103.117 132.53 102.463 135.202C102.129 136.567 102.353 137.828 103.096 138.749C103.791 139.614 104.888 140.089 106.173 140.089ZM104.526 135.209C104.893 133.78 106.564 132.456 107.958 132.456C107.999 132.456 108.041 132.456 108.083 132.458H108.098C108.757 132.43 109.38 132.698 109.797 133.201C110.253 133.752 110.401 134.492 110.203 135.232C109.768 136.855 108.218 138.078 106.595 138.078C105.907 138.078 105.308 137.805 104.917 137.312C104.477 136.761 104.331 135.975 104.526 135.209Z"></path>
<path fill="#F7E4EF" d="M121.321 137.697C120.855 137.914 120.378 137.993 120.016 138.037C118.69 138.195 117.538 137.925 116.595 137.233C116.295 137.013 116.108 137.159 115.949 137.348C115.805 137.519 115.641 137.685 115.485 137.845C115.417 137.914 115.352 137.981 115.284 138.05C114.993 138.353 114.86 138.491 114.878 138.66C114.894 138.815 115.032 138.912 115.295 139.096C116.264 139.777 117.46 140.091 118.955 140.066C119.026 140.066 119.096 140.066 119.167 140.068C119.239 140.068 119.312 140.071 119.385 140.071C119.471 140.071 119.56 140.071 119.651 140.061C120.816 139.961 121.751 139.639 122.593 139.047C123.578 138.353 124.143 137.235 124.034 136.199C123.955 135.467 123.538 134.888 122.887 134.604C122.431 134.408 121.928 134.313 121.441 134.222C121.28 134.191 121.118 134.16 120.956 134.127C120.654 134.063 120.352 134.002 120.047 133.943C119.719 133.88 119.391 133.813 119.065 133.744C118.875 133.704 118.755 133.64 118.703 133.55C118.651 133.461 118.653 133.331 118.711 133.155C118.794 132.897 118.995 132.726 119.341 132.614C120.104 132.366 120.834 132.417 121.457 132.486C122.056 132.553 122.546 132.815 122.994 133.078C123.197 133.198 123.364 133.16 123.536 132.961C123.82 132.632 124.13 132.292 124.45 131.955C124.542 131.861 124.625 131.756 124.612 131.634C124.601 131.522 124.513 131.448 124.437 131.394C123.411 130.679 122.158 130.358 120.709 130.437C119.841 130.483 119.133 130.654 118.481 130.973C117.397 131.501 116.639 132.502 116.551 133.522C116.488 134.26 116.775 134.893 117.358 135.309C117.767 135.6 118.278 135.704 118.771 135.804L118.916 135.834C119.182 135.888 119.448 135.939 119.716 135.99C120.334 136.107 120.972 136.227 121.571 136.401C121.868 136.488 122.001 136.684 121.954 136.97C121.91 137.253 121.663 137.539 121.321 137.697Z"></path>
<path fill="#F7E4EF" d="M140.925 132.829C140.958 132.64 140.995 132.614 141.209 132.614C142.834 132.627 144.465 132.617 146.091 132.625C146.362 132.625 146.492 132.525 146.547 132.267C146.644 131.8 146.745 131.392 146.855 131.017C146.883 130.92 146.907 130.795 146.834 130.698C146.758 130.598 146.623 130.585 146.508 130.591C143.817 130.598 141.761 130.596 139.841 130.591C139.531 130.58 139.403 130.698 139.333 130.994C139.083 132.048 138.822 133.104 138.561 134.158L138.085 136.095C137.806 137.233 137.524 138.374 137.243 139.512C137.217 139.612 137.191 139.727 137.264 139.819C137.332 139.9 137.441 139.91 137.519 139.91C139.593 139.903 141.81 139.903 144.491 139.91C144.716 139.91 144.833 139.816 144.885 139.594L144.903 139.507C144.987 139.132 145.075 138.747 145.187 138.369C145.221 138.259 145.25 138.119 145.169 138.014C145.091 137.912 144.95 137.9 144.812 137.9C143.137 137.91 141.464 137.9 139.789 137.907C139.721 137.907 139.687 137.9 139.684 137.902C139.684 137.892 139.684 137.864 139.7 137.797C139.846 137.262 139.981 136.71 140.104 136.156C140.138 136.003 140.153 135.986 140.315 135.988C140.742 135.993 141.17 135.993 141.599 135.993C142.05 135.993 142.498 135.993 142.946 135.998C143.236 135.998 143.371 135.894 143.431 135.608C143.512 135.207 143.611 134.804 143.725 134.413C143.757 134.309 143.78 134.174 143.702 134.074C143.624 133.975 143.499 133.964 143.374 133.964C142.892 133.972 142.41 133.972 141.928 133.969C141.524 133.969 141.117 133.969 140.711 133.972C140.677 133.972 140.659 133.972 140.646 133.969C140.646 133.957 140.651 133.939 140.659 133.908C140.763 133.541 140.862 133.183 140.925 132.829Z"></path>
<path fill="#F7E4EF" d="M175.366 153.002C175.384 153.002 175.4 153.002 175.413 153.002C175.944 152.984 176.471 152.992 176.916 153.002C177.106 153.004 177.237 152.938 177.357 152.767C177.539 152.512 177.726 152.257 177.911 152.001C178.115 151.726 178.318 151.448 178.516 151.169C178.599 151.052 178.657 151.034 178.763 151.034C180.155 151.039 181.575 151.039 182.969 151.034C183.102 151.029 183.102 151.06 183.12 151.141C183.198 151.501 183.284 151.858 183.37 152.216L183.492 152.736C183.513 152.823 183.552 153.002 183.792 153.002H183.8C184.235 152.994 184.665 152.997 185.103 152.997H185.707L185.733 152.843C185.738 152.815 185.743 152.787 185.736 152.752L185.246 150.618C184.733 148.393 184.222 146.167 183.711 143.942C183.656 143.707 183.477 143.679 183.346 143.682H183.273C182.828 143.687 182.369 143.692 181.924 143.682C181.7 143.674 181.551 143.756 181.408 143.963C181.171 144.302 180.929 144.636 180.684 144.971L179.373 146.782C177.984 148.707 176.598 150.628 175.207 152.55C175.129 152.657 175.04 152.78 175.105 152.895C175.158 152.992 175.28 153.002 175.366 153.002ZM181.994 146.387L182.612 149.031H180.079L181.994 146.387Z"></path>
<path fill="#F7E4EF" d="M174.236 137.943C174.345 137.943 174.355 137.966 174.368 138.035C174.452 138.412 174.54 138.785 174.629 139.16L174.749 139.66C174.764 139.734 174.804 139.91 175.03 139.91C175.468 139.905 175.911 139.905 176.364 139.908H177.044L176.323 136.771C175.877 134.837 175.431 132.903 174.991 130.968C174.947 130.772 174.853 130.575 174.501 130.59C174.035 130.613 173.579 130.603 173.193 130.59C172.956 130.583 172.803 130.667 172.651 130.876C172.159 131.568 171.661 132.254 171.164 132.943L170.554 133.788C169.194 135.674 167.834 137.557 166.474 139.443C166.349 139.617 166.286 139.704 166.338 139.806C166.391 139.905 166.5 139.905 166.695 139.905H167.133C167.472 139.905 167.811 139.903 168.147 139.908C168.152 139.908 168.157 139.908 168.162 139.908C168.36 139.908 168.491 139.836 168.613 139.665C168.824 139.367 169.04 139.073 169.257 138.777C169.428 138.542 169.603 138.305 169.772 138.068C169.845 137.968 169.895 137.938 169.996 137.938C171.403 137.943 172.813 137.943 174.225 137.938L174.236 137.943ZM171.32 135.955L173.245 133.301L173.866 135.955H171.32Z"></path>
<path fill="#F7E4EF" d="M130.099 133.377C129.601 135.403 129.106 137.429 128.601 139.456C128.569 139.578 128.546 139.718 128.632 139.818C128.7 139.897 128.806 139.915 128.905 139.915C128.926 139.915 128.945 139.915 128.963 139.915C129.369 139.892 129.768 139.892 130.153 139.915C130.505 139.938 130.617 139.764 130.682 139.504C131.151 137.562 131.631 135.622 132.108 133.68L132.352 132.688C132.373 132.603 132.392 132.522 132.392 132.514C132.407 132.509 132.462 132.512 132.509 132.514C132.548 132.514 132.597 132.517 132.649 132.514H132.845C133.564 132.512 134.307 132.509 135.033 132.517C135.294 132.517 135.414 132.42 135.466 132.175C135.557 131.736 135.646 131.373 135.747 131.034C135.779 130.929 135.802 130.799 135.726 130.7C135.651 130.6 135.513 130.587 135.393 130.59C134.502 130.598 133.611 130.595 132.72 130.595H130.86C129.966 130.595 129.07 130.595 128.176 130.592C127.97 130.592 127.762 130.636 127.699 130.963C127.618 131.378 127.509 131.787 127.412 132.131C127.386 132.221 127.368 132.335 127.436 132.422C127.504 132.509 127.621 132.519 127.715 132.517C128.512 132.509 129.299 132.512 130.101 132.517C130.156 132.517 130.206 132.517 130.247 132.517C130.268 132.517 130.289 132.517 130.31 132.517C130.302 132.55 130.292 132.593 130.281 132.634L130.099 133.377Z"></path>
<path fill="#F7E4EF" d="M168.224 149.258C168.641 147.559 169.058 145.857 169.485 144.157C169.516 144.027 169.54 143.881 169.454 143.779C169.368 143.68 169.225 143.672 169.094 143.68C168.756 143.698 168.383 143.7 167.927 143.68C167.661 143.675 167.518 143.777 167.45 144.052C167.192 145.134 166.924 146.214 166.658 147.296L166.213 149.105C165.926 150.269 165.642 151.433 165.353 152.597L165.345 152.627C165.322 152.714 165.296 152.821 165.366 152.908C165.431 152.99 165.541 153 165.616 153C168.021 152.99 170.405 152.992 172.617 153C172.833 153 172.945 152.91 172.992 152.699C173.096 152.242 173.19 151.831 173.307 151.42C173.336 151.321 173.36 151.193 173.287 151.096C173.214 151.002 173.083 150.989 172.971 150.991C171.71 150.996 170.449 150.996 169.188 150.996H168.005C167.927 150.996 167.846 150.996 167.802 150.991C167.807 150.948 167.826 150.871 167.844 150.797L168.224 149.258Z"></path>
<path fill="#F7E4EF" d="M164.303 134.36C164.577 133.25 164.85 132.137 165.121 131.027L165.134 130.978C165.158 130.894 165.191 130.779 165.118 130.687C165.046 130.593 164.915 130.596 164.874 130.596C164.407 130.603 163.933 130.601 163.477 130.596C163.271 130.596 163.144 130.695 163.107 130.886C163.091 130.976 163.068 131.065 163.045 131.157L162.594 132.987C162.062 135.151 161.531 137.315 160.994 139.477C160.963 139.599 160.947 139.727 161.025 139.818C161.09 139.898 161.192 139.913 161.294 139.913C161.312 139.913 161.33 139.913 161.346 139.913C161.724 139.895 162.127 139.895 162.542 139.913C162.844 139.921 162.969 139.824 163.037 139.54C163.287 138.491 163.545 137.445 163.803 136.396L164.303 134.36Z"></path>
<path fill="#F7E4EF" d="M163.024 143.68C162.672 143.697 162.292 143.697 161.828 143.68C161.559 143.672 161.419 143.776 161.354 144.052C161.098 145.119 160.835 146.186 160.572 147.252L160.053 149.363C159.793 150.432 159.53 151.499 159.259 152.568C159.23 152.683 159.209 152.813 159.29 152.908C159.355 152.987 159.462 153.005 159.564 153.005C159.579 153.005 159.598 153.005 159.613 153.005C160.048 152.987 160.473 152.992 160.866 153.005C161.114 153.015 161.236 152.915 161.286 152.683C161.348 152.395 161.421 152.104 161.494 151.813L161.961 149.914C162.432 147.99 162.906 146.066 163.386 144.141C163.417 144.011 163.438 143.879 163.355 143.782C163.274 143.685 163.136 143.672 163.024 143.68Z"></path>
</svg>
